<svg width="512" height="512" viewBox="0 0 512 512" fill="none" xmlns="http://www.w3.org/2000/svg">
<g clip-path="url(#clip0_459_31849)">
<rect width="512" height="512" rx="56" fill="#FFA203"/>
<rect width="512" height="512" rx="56" fill="url(#paint0_linear_459_31849)"/>
<path d="M336.407 229.725L370.184 305.588C373.242 312.456 381.479 315.318 388.017 311.783L396.094 307.416C400.64 304.958 403.206 299.966 402.581 294.793L394.429 227.262C393.554 220.013 398.858 213.553 406.091 212.797C432.015 210.089 486.813 201.943 485.991 181.513C485.047 158.056 396.426 165.855 374.641 168.129C371.539 168.452 368.414 167.674 365.823 165.893L264.547 96.2763C262.144 94.6242 259.261 93.832 256.374 94.0298L245.998 94.7405C234.993 95.4944 230.25 108.947 238.273 116.651L289.692 166.03C297.437 173.468 293.34 186.59 282.891 188.56C51.6078 232.165 -152.518 440.9 281.442 593C4.2901 418.923 204.909 246.393 322.929 222.434C328.537 221.295 334.059 224.453 336.407 229.725Z" fill="#351B02"/>
</g>
<defs>
<linearGradient id="paint0_linear_459_31849" x1="254.277" y1="-61.5952" x2="254.277" y2="511.264" gradientUnits="userSpaceOnUse">
<stop stop-color="#FFD207"/>
<stop offset="1" stop-color="#FF9901"/>
</linearGradient>
<clipPath id="clip0_459_31849">
<rect width="512" height="512" rx="56" fill="white"/>
</clipPath>
</defs>
</svg>
