<svg width="350" height="432" viewBox="0 0 350 432" fill="none" xmlns="http://www.w3.org/2000/svg">
<path d="M4.73246 29.103C5.20211 28.2956 5.76544 27.4694 6.23509 26.6432C-0.0770223 27.169 -0.358905 21.7985 1.44456 17.3107C4.28125 10.0813 9.37243 11.9778 13.9374 7.15199C22.7669 -2.34948 41.7032 2.06329 53.8578 -3.34466C43.9951 -2.91277 50.3636 -5.71064 53.8578 -7.77618C51.7725 -7.00629 49.6684 -6.38671 47.4517 -5.80461C46.0615 -12.2453 67.6653 -28.7508 67.6653 -18.0664C70.9153 -20.0568 74.2215 -22.0096 77.4527 -24C78.2417 -16.7706 106.759 -20.0567 106.891 -7.77618C115.608 -18.9864 141.006 -10.2548 153.048 -12.1889C163.362 -13.8038 166.029 -14.4423 176.869 -11.8134C188.441 -9.07191 200.126 -6.49937 211.849 -4.50895C227.892 -1.82375 242.545 -3.2884 257.216 -6.85615C266.459 -9.09068 277.43 -6.9875 285.584 -2.06777C296.705 4.57951 295.033 -4.65907 305.309 -3.90796C314.364 -3.26953 323.212 0.317013 332.079 2.06333C337.433 3.11488 354.717 -2.64989 357.046 1.08686C359.563 5.19915 375.663 0.223038 372.769 10.0437C372.168 12.128 369.67 14.6443 371.436 16.6723C375.606 21.4043 374.329 16.1652 378.744 16.3154C392.777 17.0478 411.262 30.2109 417.011 32.483C419.754 33.5533 423.041 30.7931 425.878 31.8258C429.579 33.1966 432.04 38.5294 435.534 37.8534C445.246 35.863 457.382 36.3324 469.067 39.487C467.508 35.2621 469.198 32.239 471.509 29.1782C477.464 29.3096 481.729 29.7603 492.23 36.2761C500.928 36.5202 509.025 39.4308 506.883 53.7205C518.756 51.8052 518.042 43.2613 518.831 49.1763C521.086 50.4531 532.939 57.6637 535.776 56.7249C539.064 55.6545 542.201 53.1948 546.052 54.7345C553.303 57.6263 561.119 60.4804 567.074 55.617C571.658 51.8991 576.016 52.406 587.024 53.6265C591.195 54.0772 587.776 60.8559 592.924 60.1236C592.849 65.3438 589.655 63.7477 586.649 66.17C582.234 69.6814 586.649 78.4131 586.405 82.9572C585.841 95.5758 558.207 104.72 548.927 108.532C541.957 111.443 540.078 118.015 534.292 120.794C527.304 124.099 517.592 124.024 510.096 125.883C491.855 130.465 480.808 138.389 466.136 148.547C477.539 157.673 466.681 159.438 458.923 163.889C447.501 170.442 445.265 186.215 434.087 193.332C415.001 205.519 408.219 240.539 423.962 257.251C433.542 267.429 441.245 270.546 425.483 280.347C416.353 286.075 409.421 288.478 402.001 296.609C397.567 301.435 393.585 308.796 390.541 315.8C388.588 320.194 386.408 325.17 386.333 330.033C386.258 334.145 392.983 339.647 388.888 329.864C395.162 340.173 369.745 340.962 364.805 341.562C352.951 342.933 336.456 353.73 333.62 365.41C331.177 375.475 322.818 393.426 312.035 384.694C305.422 379.324 300.481 386.516 295.052 388.807C287.143 392.056 278.558 387.173 270.198 388.506C252.727 391.398 235.312 389.37 217.428 389.765C207.903 389.934 205.818 391.717 198.867 398.196C190.958 405.594 180.551 402.571 171.402 407.115C166.856 409.425 162.347 424.747 158.27 424.315C153.179 423.846 154.532 432.221 146.642 431.996C140.292 431.864 135.446 420.935 129.415 421.611C122.765 422.362 117.787 408.486 116.134 403.529C124.963 402.008 113.992 395.661 111.381 393.727C105.182 388.938 112.583 380.714 118.594 379.005C114.837 377.822 112.959 379.812 112.733 383.418C109.465 380 83.3142 362.293 89.0627 356.885C80.0266 355.871 88.8939 360.697 79.2191 360.903C74.8607 361.035 69.4312 362.631 65.1668 361.072C59.1177 358.838 59.2683 343.271 60.1137 338.239C60.8651 333.788 64.3214 330.521 67.2708 327.498C70.8778 323.78 71.3665 317.884 74.5226 314.748C81.8116 307.537 84.8734 313.114 89.6263 301.904C80.1957 305.04 72.6628 292.534 72.4185 284.704C72.024 272.461 86.2071 266.508 89.6825 255.674C91.5611 249.815 80.4399 242.003 77.8099 236.821C75.5744 232.446 77.8098 229.892 74.5598 226.193C71.8359 223.019 68.1917 219.677 66.4258 215.828C72.6815 217.518 79.2189 216.297 85.5123 216.297C92.0874 216.297 90.3217 212.448 92.5949 208.373C95.4503 203.265 101.142 202.627 94.8864 187.192C93.0453 182.61 101.443 180.225 102.307 179.831C106.684 177.709 105.125 171.494 104.975 167.644C104.768 164.696 106.346 135.666 102.533 136.624C109.371 134.934 112.545 127.498 119.177 123.31C122.971 120.963 139.315 106.917 137.38 102.993C135.013 98.1671 122.427 99.1434 121.976 96.1766C121.206 91.5573 124.568 78.8449 119.665 83.0698C116.321 85.9616 93.2519 79.5397 92.6883 83.5581C91.5799 91.8766 78.1295 88.7971 73.4706 86.863C66.0125 83.8022 58.3667 87.3323 51.3783 89.8861C36.9318 95.0124 45.7235 80.1218 51.1902 76.1785C46.9446 76.7231 45.141 74.3758 45.8361 70.2635C41.6093 74.3195 35.8605 74.4134 30.5065 75.3711C23.7435 76.6292 19.8175 82.0934 13.8623 84.9851C8.45195 70.9395 24.082 69.4186 27.5574 58.4525C25.0213 63.2595 19.8735 64.7617 14.7825 64.8555C15.8909 59.241 21.1886 56.9878 25.6409 54.5467C21.1886 56.5184 14.4443 56.9878 14.7825 50.0964C15.0643 45.1767 22.8046 43.3177 23.6687 38.3229C19.3291 42.3976 12.4158 41.9844 9.89851 48.1435C4.99535 41.0455 12.8103 35.3184 17.7511 31.3751C13.017 35.525 6.68621 36.5953 4.73246 29.103Z" fill="url(#paint0_linear_2003_10275)"/>
<g filter="url(#filter0_f_2003_10275)">
<path d="M245.428 199.525C241.287 199.165 237.848 198.385 234.617 198.385C231.386 198.385 230.259 195.936 230.259 194.94C230.259 193.944 232.878 193.137 236.109 193.137C239.341 193.137 249.57 199.885 245.428 199.525Z" fill="url(#paint1_radial_2003_10275)"/>
</g>
<g filter="url(#filter1_i_2003_10275)">
<path d="M234.826 153C226.647 153 220.016 159.62 220.016 167.787C220.016 181.27 234.826 193.137 234.826 193.137C234.865 193.106 249.636 181.253 249.636 167.787C249.636 159.621 243.005 153 234.826 153ZM234.825 160.746C238.72 160.746 241.878 163.898 241.878 167.787C241.878 171.676 238.72 174.829 234.825 174.829C230.931 174.829 227.774 171.676 227.774 167.787C227.774 163.899 230.931 160.746 234.825 160.746Z" fill="url(#paint2_radial_2003_10275)"/>
</g>
<defs>
<filter id="filter0_f_2003_10275" x="226.242" y="189.12" width="24.1749" height="14.4355" filterUnits="userSpaceOnUse" color-interpolation-filters="sRGB">
<feFlood flood-opacity="0" result="BackgroundImageFix"/>
<feBlend mode="normal" in="SourceGraphic" in2="BackgroundImageFix" result="shape"/>
<feGaussianBlur stdDeviation="2.00841" result="effect1_foregroundBlur_2003_10275"/>
</filter>
<filter id="filter1_i_2003_10275" x="220.016" y="153" width="29.6201" height="40.1367" filterUnits="userSpaceOnUse" color-interpolation-filters="sRGB">
<feFlood flood-opacity="0" result="BackgroundImageFix"/>
<feBlend mode="normal" in="SourceGraphic" in2="BackgroundImageFix" result="shape"/>
<feColorMatrix in="SourceAlpha" type="matrix" values="0 0 0 0 0 0 0 0 0 0 0 0 0 0 0 0 0 0 127 0" result="hardAlpha"/>
<feOffset dx="0.589732" dy="-1.08118"/>
<feComposite in2="hardAlpha" operator="arithmetic" k2="-1" k3="1"/>
<feColorMatrix type="matrix" values="0 0 0 0 0.403922 0 0 0 0 0.2 0 0 0 0 0.0196078 0 0 0 0.29 0"/>
<feBlend mode="normal" in2="shape" result="effect1_innerShadow_2003_10275"/>
</filter>
<linearGradient id="paint0_linear_2003_10275" x1="324.333" y1="448.073" x2="324.333" y2="-37.2979" gradientUnits="userSpaceOnUse">
<stop stop-color="#E3E5EC" stop-opacity="0"/>
<stop offset="1" stop-color="#E3E5EC"/>
</linearGradient>
<radialGradient id="paint1_radial_2003_10275" cx="0" cy="0" r="1" gradientUnits="userSpaceOnUse" gradientTransform="translate(232.759 195.191) rotate(10.164) scale(10.0619 15.3208)">
<stop stop-color="#81898D" stop-opacity="0.48"/>
<stop offset="1" stop-color="#81898D" stop-opacity="0"/>
</radialGradient>
<radialGradient id="paint2_radial_2003_10275" cx="0" cy="0" r="1" gradientUnits="userSpaceOnUse" gradientTransform="translate(219.68 146.615) rotate(70.932) scale(54.5312 96.6081)">
<stop stop-color="#FFAA00"/>
<stop offset="1" stop-color="#FF8800"/>
</radialGradient>
</defs>
</svg>
