<svg width="385" height="450" viewBox="0 0 385 450" fill="none" xmlns="http://www.w3.org/2000/svg">
<path d="M816.587 319.702L814.764 320.309L797.146 319.398L782.565 320.916L772.237 331.236H766.161L757.656 333.967L751.884 337.307L744.898 344.591L739.43 341.252H732.747L726.368 343.073L718.774 347.93L714.521 348.841L706.016 347.626L695.992 350.358L674.424 366.142L667.134 377.676L664.399 379.801L660.754 382.532L656.805 384.05H654.679L665.007 375.855L668.045 372.82L668.652 370.695V367.052L665.615 362.499L657.109 373.73L652.249 375.248L646.173 378.587L645.87 385.871L646.477 391.335L648.908 398.316L654.679 409.547L666.83 425.634L672.602 431.401L676.854 433.829L682.018 434.133L691.738 429.276L695.992 428.366L705.105 430.187L708.446 426.848L713.306 425.027L719.381 424.723L726.368 426.241L733.962 428.669L730.925 434.436L727.583 438.989L726.368 443.846L724.545 449.309L716.344 451.738L707.535 451.434L698.118 452.952L694.776 450.827L692.65 449.006L688.397 447.185L682.929 445.97L678.069 447.185L672.297 454.773L661.97 459.933L658.628 465.7L648.603 464.486L639.794 465.396L627.34 470.86L617.923 482.394L607.291 489.375L599.089 491.5L591.192 490.893L586.028 488.768L575.699 481.18L576.307 478.448L577.825 477.234L579.648 473.288L583.901 459.022L583.293 454.469L580.863 447.185L572.661 441.417L565.979 442.632L562.334 441.114L548.664 431.401L541.373 430.794L533.172 432.615L530.134 431.097L528.008 427.759L544.108 415.921L559.903 405.904L566.89 404.994L576.307 400.441L586.331 393.46L584.812 387.996L582.686 384.05L577.825 385.264L574.18 386.478L565.675 382.229L562.637 378.89L549.576 382.229L542.285 381.622L526.185 384.657L518.591 381.622L503.706 373.123L498.238 371.302L493.379 371.605L490.644 368.873L493.682 367.356L497.327 367.052L501.276 366.142L502.492 364.624L502.188 361.892L494.289 359.768L486.999 359.161L482.443 356.732L479.101 354.001H487.303L495.505 356.125L508.263 357.036L519.806 359.161L522.844 356.429L529.527 351.572L530.741 350.055L519.502 353.393L507.959 351.269L503.706 348.234L500.061 343.984L498.542 339.128L499.454 334.575L498.238 326.379L494.593 319.095L493.379 315.149L489.429 311.506L493.379 319.702L494.897 325.165L497.327 330.022L496.72 343.377L495.201 347.93L490.341 349.144L484.266 348.537L477.886 347.019L479.405 339.735L476.063 342.163L471.203 349.144L466.95 350.055L457.534 349.144L440.219 353.697L439.004 358.857L436.27 365.838L433.84 369.784L432.928 372.213L425.638 382.532L424.727 383.443L410.753 397.709L408.931 398.62L399.818 401.958L394.35 404.994L390.401 406.208L383.414 404.69L380.68 406.815L379.466 409.243V414.403L383.111 418.046L385.844 430.49L384.63 435.65L381.895 432.311L377.643 428.669L369.441 425.634L360.328 426.544L350.304 431.705L343.621 433.526L339.976 432.311H337.849L337.241 433.829L337.546 435.043L338.76 435.954V436.561L337.241 436.864L321.446 433.222L314.763 429.883L309.295 423.509L312.029 421.384L314.459 420.474L322.66 419.867L324.179 419.26V417.742L324.787 415.921L324.483 413.189L323.572 410.154L327.217 405.601L332.685 401.958L335.723 398.316L336.33 392.852L341.798 390.121L346.659 385.568L347.873 380.711L349.696 377.676L346.659 370.391L346.051 365.535V361.589L347.57 359.464L352.127 357.036L356.986 355.215L359.113 355.518L359.721 356.732L360.024 364.928L360.936 365.231L362.454 364.321L364.885 359.464L366.707 360.982L369.441 361.589L371.567 360.375H372.782L374.301 361.589L377.643 363.41L380.68 364.017L383.111 362.803L385.237 360.678L387.667 361.285L391.92 366.749L394.046 366.142L404.07 364.928L405.589 363.41L406.805 361.892L396.476 354.304L397.084 348.841L397.388 342.466L396.173 338.52L394.046 335.485L386.148 331.843L380.073 328.201L378.858 326.683L378.554 324.558L378.25 321.219L375.82 318.487L375.517 316.059L377.035 312.417L377.339 308.471L376.731 306.953L375.212 305.739H372.479L368.834 303.311L366.403 300.276L359.721 295.723L357.594 295.116L356.379 292.991L355.772 290.259L357.29 286.92L359.113 281.76L360.328 276.904V274.172L359.417 267.191L355.772 261.727L354.253 261.12L351.518 262.638L348.177 263.852L345.747 262.638L342.709 259.602L338.153 251.407L329.344 249.89L325.698 249.586L322.357 253.532L321.142 252.318L320.231 249.89L318.408 248.979L315.978 250.193L315.37 248.979L316.282 245.64L313.547 243.819H306.865L303.22 242.605L302.916 239.873L300.789 238.052L297.144 237.141L293.499 235.016L289.854 231.678L284.386 229.553L277.399 228.642L276.792 228.339L276.185 227.732L271.628 230.16L268.894 231.981L265.553 230.767L260.085 234.713L248.845 235.016L243.378 234.713L240.643 233.802L230.315 239.873L229.101 242.301L226.67 243.212L219.988 244.426L213.001 246.247L211.482 252.318L209.356 255.657L205.71 260.513L192.952 262.031L181.713 264.459L170.169 265.977L155.285 271.744L150.424 276.904L145.564 278.422L141.311 278.725L138.578 275.993L129.161 268.405L125.515 264.763L120.655 263.852L115.491 264.459L110.327 266.28L105.163 266.584L99.0878 264.155L98.4804 264.459L96.0502 264.763L81.1651 261.727L79.6462 261.12H79.0389L76.9126 260.817L65.6734 261.12L55.3448 254.746L52.0038 254.443L49.5735 256.871L47.7506 259.602L40.4605 262.334L38.6376 263.548L37.7269 262.638L37.1188 260.21L37.7269 258.085L36.5114 255.96L33.7778 253.532L33.1704 252.621L29.8286 252.925L28.9172 253.228H28.6139L23.7533 251.407L20.7156 246.551L15.855 244.122L12.2099 243.212L10.3878 241.087L9.17227 238.355L7.9575 236.231V235.927L7.04605 232.892L5.83127 232.588H5.52721L0.666626 233.195L1.27475 222.268L8.86895 214.377L10.6911 210.431L13.7288 201.932L15.855 197.986L18.5894 194.647L20.7156 191.308L21.323 188.576L23.4492 188.273L29.5246 190.701L34.9925 191.915L36.5114 190.701L37.1188 189.183L36.8154 187.969L32.2589 184.327L29.5246 181.899L29.2212 180.381L30.1327 177.042L30.7401 173.4L30.1327 169.454L27.095 160.651L26.4869 157.009L29.2212 152.456L38.6376 141.529L41.6753 137.28L45.9285 132.423L57.4718 120.586L64.7619 113.604L69.6225 109.658L76.9126 102.981L79.9503 99.3384L93.3158 96.91L94.8346 93.5712L97.2649 89.929L99.0878 88.4113L99.3912 82.3407L96.9616 75.0559L95.1387 72.324L93.6199 70.5029L94.5313 68.9853L96.0502 68.378L97.8723 68.0745L99.9993 66.2534L99.3912 64.4323L93.9239 59.5759L91.4936 55.9333L87.8486 46.5239L80.2544 36.8111L77.8241 33.7758L77.52 30.7405L78.7355 27.7052L77.52 23.7591L74.7864 18.9027L75.0897 18.2954L74.7864 12.2248L76.6086 11.011L79.6462 10.1002L83.8994 10.4037L87.5445 11.3144L92.101 14.0463L93.6199 13.7425L101.214 8.58258L109.112 0.690853L111.239 -3.86211L113.061 -5.98705L119.744 -7.20087L125.515 -7.80816H129.161L138.274 -8.71852L143.742 -9.62927L148.602 -11.1469L158.626 -11.7538L174.422 -10.8435H184.75L191.737 -10.2362L209.052 -5.98705L215.431 -5.07631L218.469 -2.95174L224.24 -2.041L234.568 0.0835686L243.681 1.29777L249.756 0.690853L253.098 1.29777L259.477 11.3144L260.692 12.5286L263.426 12.8321L268.59 11.9213L276.185 12.2248L280.741 14.3497L280.133 20.1169L281.349 21.0273L283.475 20.7238L285.905 17.385L288.031 14.0463L289.55 12.8321L297.144 15.2601L300.789 14.9567L304.131 12.2248L306.257 11.9213L311.725 13.7425L318.408 14.9567H323.876L327.217 16.4743L329.647 22.5449L331.773 23.7591L333.9 24.0626L336.938 18.5992L339.672 16.4743L343.621 14.9567L346.051 14.3497L347.873 12.5286L350.304 10.7071L352.43 10.4037L354.253 11.011L356.075 13.7425L358.809 19.8131L362.15 25.8837L364.581 28.0086L370.96 26.1875L375.212 24.366L383.111 24.0626L393.439 22.8484L401.337 21.0273L406.197 21.3307L409.234 23.1522L413.791 26.7944L415.006 31.9543L420.778 35.5969L425.638 36.2038L427.157 32.5616L429.891 29.8297L428.676 26.1875L428.068 21.6346L425.942 17.385L424.423 12.8321L427.157 6.15419L429.891 0.387398L431.409 -2.64791L435.966 -8.41507L440.523 -12.6646L447.509 -19.3421L452.37 -21.467L456.926 -20.5563L459.356 -19.6459L465.735 -23.5916L477.279 -23.8951L486.999 -23.2882H487.911L492.77 -21.1636L497.631 -19.3421H500.973L504.921 -19.6459L509.782 -22.074L513.123 -24.1989L517.072 -35.7328L518.591 -37.2505L520.718 -38.1612H524.363L531.35 -36.0363L539.551 -34.2152L544.411 -34.5186L557.17 -40.5893L564.156 -41.5L572.358 -39.9823H580.56L586.635 -40.8931L590.888 -38.7681L596.051 -34.2152L600.912 -27.2342L605.773 -14.4857L620.353 -0.219887L620.657 2.51196L619.442 4.33308L612.455 6.15419L606.38 7.06493L606.076 9.49332L607.595 12.2248L610.329 16.1708L610.632 21.0273V25.5802L611.848 29.5263L614.278 31.0439L614.582 33.1685L611.848 35.5969L611.24 37.1145L612.151 38.0249L625.214 38.6322L631.593 41.0602L636.453 43.1852L638.883 43.4886L644.351 41.971L650.426 41.0602H654.071L655.59 42.5779L656.805 46.8274L658.932 51.0769L661.058 52.2911L664.703 51.9876L666.83 52.2911L668.045 53.8087L666.83 56.2368L667.134 58.9686L668.652 62.3074L670.475 69.5922L672.297 71.7171L673.512 74.4486V77.7878L671.993 80.5192L671.083 82.6442L671.993 87.5006L675.943 92.9643L678.98 94.4819L681.411 99.3384L685.663 100.856L691.738 96.6065L696.599 94.4819L702.674 95.6958L708.142 96.6065L711.787 99.3384L714.521 103.284L717.559 105.409L720.596 104.195L727.28 105.409L730.317 108.444L733.355 110.265L737.303 107.837L740.341 104.802L751.884 101.463L759.175 100.553L761.302 99.9453L765.554 97.5172L770.111 95.9996L774.06 96.3031L778.009 101.159L782.261 104.498L783.477 109.962L788.641 117.247L801.095 127.263L805.955 130.298L809.297 129.691L811.119 128.781L812.031 127.87L812.638 123.014L814.157 121.192H816.587L826.308 127.263L831.471 127.87H836.332L843.015 132.727L850.306 136.976L855.773 137.28L860.329 135.762L863.367 134.851L865.19 136.369L867.013 140.012L870.051 142.743L873.392 143.654L878.252 143.957L886.454 149.117L894.352 154.581L899.212 154.884L903.465 153.367L907.11 153.063L909.54 154.277L910.148 156.706L908.325 159.741V164.294L911.667 168.543V172.793L910.755 176.435L908.932 179.774L904.072 184.63L899.819 189.183L893.136 191.005L889.491 192.826L890.403 196.165L892.833 199.2L898.3 201.628L904.68 203.449L905.287 205.574L904.376 206.485L900.427 207.395L894.655 206.485L892.833 208.306L890.099 211.037L888.277 216.198L887.061 221.054L893.136 222.268L896.782 224.089L897.997 228.035L899.212 232.285L899.516 236.231L897.39 238.052V239.873L898.3 240.784L901.035 241.087L903.161 241.998L903.465 244.122L899.516 248.675L895.871 257.478L894.048 262.031V267.191L891.922 269.923L887.973 270.226L874.303 270.833L862.456 270.53L857.292 269.923L849.394 269.619L845.445 270.833L840.281 279.028L836.332 282.064L829.649 284.796L822.358 285.706L818.106 289.045L816.587 294.205V298.758L815.98 301.186L814.461 303.311L813.854 304.829L814.157 306.346L815.98 306.953L818.106 307.56V308.775L817.195 310.292L815.068 311.81L814.157 314.238L814.461 316.97L816.587 319.702ZM502.188 377.069L509.174 380.104L502.188 379.194L486.392 376.158L479.405 373.426L477.582 370.391L476.671 366.142L480.62 370.695L483.354 372.516L502.188 377.069Z" fill="url(#paint0_linear_2003_2003)"/>
<g filter="url(#filter0_f_2003_2003)">
<path d="M135.844 146.156C131.713 145.796 128.282 145.016 125.059 145.016C121.836 145.016 120.712 142.567 120.712 141.571C120.712 140.575 123.325 139.768 126.548 139.768C129.771 139.768 139.975 146.516 135.844 146.156Z" fill="url(#paint1_radial_2003_2003)"/>
</g>
<g filter="url(#filter1_i_2003_2003)">
<path d="M125.267 99.6309C117.108 99.6311 110.494 106.251 110.494 114.418C110.494 127.881 125.224 139.733 125.267 139.768C125.267 139.768 140.041 127.901 140.042 114.418C140.042 106.251 133.426 99.6309 125.267 99.6309ZM125.267 107.377C129.152 107.377 132.302 110.529 132.302 114.418C132.302 118.307 129.152 121.46 125.267 121.46C121.382 121.46 118.232 118.307 118.232 114.418C118.232 110.529 121.382 107.377 125.267 107.377Z" fill="url(#paint2_radial_2003_2003)"/>
</g>
<defs>
<filter id="filter0_f_2003_2003" x="116.695" y="135.751" width="24.1357" height="14.4355" filterUnits="userSpaceOnUse" color-interpolation-filters="sRGB">
<feFlood flood-opacity="0" result="BackgroundImageFix"/>
<feBlend mode="normal" in="SourceGraphic" in2="BackgroundImageFix" result="shape"/>
<feGaussianBlur stdDeviation="2.00841" result="effect1_foregroundBlur_2003_2003"/>
</filter>
<filter id="filter1_i_2003_2003" x="110.494" y="99.6309" width="29.5479" height="40.1367" filterUnits="userSpaceOnUse" color-interpolation-filters="sRGB">
<feFlood flood-opacity="0" result="BackgroundImageFix"/>
<feBlend mode="normal" in="SourceGraphic" in2="BackgroundImageFix" result="shape"/>
<feColorMatrix in="SourceAlpha" type="matrix" values="0 0 0 0 0 0 0 0 0 0 0 0 0 0 0 0 0 0 127 0" result="hardAlpha"/>
<feOffset dx="0.589732" dy="-1.08118"/>
<feComposite in2="hardAlpha" operator="arithmetic" k2="-1" k3="1"/>
<feColorMatrix type="matrix" values="0 0 0 0 0.403922 0 0 0 0 0.2 0 0 0 0 0.0196078 0 0 0 0.29 0"/>
<feBlend mode="normal" in2="shape" result="effect1_innerShadow_2003_2003"/>
</filter>
<linearGradient id="paint0_linear_2003_2003" x1="498.654" y1="510.287" x2="498.654" y2="-57.0434" gradientUnits="userSpaceOnUse">
<stop stop-color="#E3E5EC" stop-opacity="0"/>
<stop offset="1" stop-color="#E3E5EC"/>
</linearGradient>
<radialGradient id="paint1_radial_2003_2003" cx="0" cy="0" r="1" gradientUnits="userSpaceOnUse" gradientTransform="translate(123.206 141.822) rotate(10.1883) scale(10.0382 15.3196)">
<stop stop-color="#81898D" stop-opacity="0.48"/>
<stop offset="1" stop-color="#81898D" stop-opacity="0"/>
</radialGradient>
<radialGradient id="paint2_radial_2003_2003" cx="0" cy="0" r="1" gradientUnits="userSpaceOnUse" gradientTransform="translate(110.158 93.2455) rotate(70.9751) scale(54.5171 96.3981)">
<stop stop-color="#FFAA00"/>
<stop offset="1" stop-color="#FF8800"/>
</radialGradient>
</defs>
</svg>
